STARTFONT 2.3
FONT -FontForge-Fontdiner Swanky-Book-R-Normal--14-140-72-72-P-88-ISO10646-1
SIZE 14 72 72  4
FONTBOUNDINGBOX 21 22 -4 -7
COMMENT "Generated by fontforge, http://fontforge.sourceforge.net"
COMMENT "Copyright (c) 2010 by Font Diner, Inc. All rights reserved."
STARTPROPERTIES 40
FOUNDRY "FontForge"
FAMILY_NAME "Fontdiner Swanky"
WEIGHT_NAME "Book"
SLANT "R"
SETWIDTH_NAME "Normal"
ADD_STYLE_NAME ""
PIXEL_SIZE 14
POINT_SIZE 140
RESOLUTION_X 72
RESOLUTION_Y 72
SPACING "P"
AVERAGE_WIDTH 88
CHARSET_REGISTRY "ISO10646"
CHARSET_ENCODING "1"
FONTNAME_REGISTRY ""
CHARSET_COLLECTIONS "ISO10646-1"
BITS_PER_PIXEL 4
FONT_NAME "FontdinerSwanky-Regular"
FACE_NAME "Fontdiner Swanky Regular"
COPYRIGHT "Copyright (c) 2010 by Font Diner, Inc. All rights reserved."
FONT_VERSION "1.001"
FONT_ASCENT 11
FONT_DESCENT 3
UNDERLINE_POSITION -1
UNDERLINE_THICKNESS 1
X_HEIGHT 7
CAP_HEIGHT 8
RAW_ASCENT 799
RAW_DESCENT 200
NORM_SPACE 4
RELATIVE_WEIGHT 40
RELATIVE_SETWIDTH 50
SUPERSCRIPT_X 0
SUPERSCRIPT_Y 6
SUPERSCRIPT_SIZE 8
SUBSCRIPT_X 0
SUBSCRIPT_Y 1
SUBSCRIPT_SIZE 8
AVG_LOWERCASE_WIDTH 88
AVG_UPPERCASE_WIDTH 107
ENDPROPERTIES
CHARS 231
STARTCHAR space
ENCODING 32
SWIDTH 320 0
DWIDTH 4 0
BBX 1 1 0 0
BITMAP
00
ENDCHAR
STARTCHAR exclam
ENCODING 33
SWIDTH 305 0
DWIDTH 4 0
BBX 5 13 0 -1
BITMAP
08BA20
0AFF10
0BFD00
0CFB00
0CF800
0DF500
0EF200
0EE000
0FC000
054000
8E7000
AFA000
020000
ENDCHAR
STARTCHAR quotedbl
ENCODING 34
SWIDTH 369 0
DWIDTH 5 0
BBX 5 5 0 5
BITMAP
342440
CF6FE0
BF4FD0
9F2EC0
360650
ENDCHAR
STARTCHAR numbersign
ENCODING 35
SWIDTH 702 0
DWIDTH 10 0
BBX 10 10 0 0
BITMAP
0047205600
009F20BB00
5BEFA9ED85
9FFFFFFFE7
11CD01F800
00DB03F700
BDFFEEFFF4
9AFDBCFDC2
01F707F500
0193058200
ENDCHAR
STARTCHAR dollar
ENCODING 36
SWIDTH 545 0
DWIDTH 8 0
BBX 8 13 0 -2
BITMAP
00131000
007F6000
018F6031
3EEDFBB0
BF302BF0
CFC610A0
3EFFFA30
329EFFE2
98005EF7
AFB64DF4
A5AFEB50
101FA000
002B8000
ENDCHAR
STARTCHAR percent
ENCODING 37
SWIDTH 657 0
DWIDTH 9 0
BBX 10 12 0 -1
BITMAP
023000B800
7FEC15FA00
CA3F4BF400
9EBE4FC000
06738F6000
0000EE0000
0005F80000
000BF27950
002FA8E8F4
008F3AD1F6
00EB03EFC1
0164000100
ENDCHAR
STARTCHAR ampersand
ENCODING 38
SWIDTH 668 0
DWIDTH 9 0
BBX 11 13 0 -2
BITMAP
002662000000
06FABF400000
0DE01FA00000
0BF61F700000
03FFCB000000
009FF2040000
09FBFC0A2000
4FA1DF9CC100
8FB03FFD3330
5FFB8DFFDC20
08EFC6CF7000
000003C30000
000004000000
ENDCHAR
STARTCHAR quotesingle
ENCODING 39
SWIDTH 177 0
DWIDTH 2 0
BBX 3 5 0 5
BITMAP
5520
CF40
BF30
9F10
3500
ENDCHAR
STARTCHAR parenleft
ENCODING 40
SWIDTH 384 0
DWIDTH 5 0
BBX 6 14 0 -2
BITMAP
000161
004E60
03FC00
0BF400
1FE000
3FD000
4FC000
4FC000
3FE000
1FF200
0AF700
03FD00
005E70
000292
ENDCHAR
STARTCHAR parenright
ENCODING 41
SWIDTH 375 0
DWIDTH 5 0
BBX 5 14 0 -2
BITMAP
620000
2E8000
06F800
00DF20
009F60
007F90
006FA0
007FA0
008F90
00BF60
01FF20
08F800
2EA000
850000
ENDCHAR
STARTCHAR asterisk
ENCODING 42
SWIDTH 640 0
DWIDTH 9 0
BBX 9 9 0 0
BITMAP
03A4094000
05FB2FF500
00AFAFB000
AB9FFF6780
CFFFFFFFD0
877FFE5550
01CF9FC100
07F92FE400
0082061000
ENDCHAR
STARTCHAR plus
ENCODING 43
SWIDTH 607 0
DWIDTH 9 0
BBX 9 9 0 0
BITMAP
000AA40000
000DF50000
000DF50000
BEDFFCAA30
DFFFFFFF40
454CF53200
000BF20000
000BF20000
0004710000
ENDCHAR
STARTCHAR comma
ENCODING 44
SWIDTH 226 0
DWIDTH 3 0
BBX 3 4 0 -3
BITMAP
7F90
BFF0
1CA0
1910
ENDCHAR
STARTCHAR hyphen
ENCODING 45
SWIDTH 549 0
DWIDTH 8 0
BBX 7 4 0 3
BITMAP
01000000
2FFEDCA0
2FFFFFC0
15543320
ENDCHAR
STARTCHAR period
ENCODING 46
SWIDTH 226 0
DWIDTH 3 0
BBX 3 4 0 -2
BITMAP
0200
9FB0
AFD0
0310
ENDCHAR
STARTCHAR slash
ENCODING 47
SWIDTH 600 0
DWIDTH 8 0
BBX 10 14 -1 -1
BITMAP
0000000200
0000000BD4
0000005FF8
000001DFD0
000007FF40
00002EFA00
0000AFE100
0003FF6000
000CFC0000
006FF30000
01EF800000
08FD100000
2FF5000000
19A0000000
ENDCHAR
STARTCHAR zero
ENCODING 48
SWIDTH 740 0
DWIDTH 10 0
BBX 11 9 0 0
BITMAP
0039CCB60000
08FFB8DFC100
4FF5001DF900
9FC00007FE00
AFA00005FF10
9FC00007FE00
3FF3001DF800
07FE77CFC100
005BEEC60000
ENDCHAR
STARTCHAR one
ENCODING 49
SWIDTH 503 0
DWIDTH 7 0
BBX 9 12 -1 -1
BITMAP
0000010000
0269CF2000
37AEFF2000
0006FF1000
0005FF1000
0004FF1000
0004FF0000
0003FF0000
0002FE0000
0002FE0000
006CFFA300
0566666630
ENDCHAR
STARTCHAR two
ENCODING 50
SWIDTH 638 0
DWIDTH 9 0
BBX 10 12 -1 -1
BITMAP
0500000000
0685CFEA20
04FFB7AFD1
02FA000BF7
00E1000BF7
0070005FE2
00203AFD33
0009FD6055
00BF9000C4
09FE6679F3
1FFFFFFFF3
0234455671
ENDCHAR
STARTCHAR three
ENCODING 51
SWIDTH 620 0
DWIDTH 9 0
BBX 10 13 -1 -2
BITMAP
0300000000
0916BC9300
08EFBBFF60
05F5005FF0
0190001FF1
002144BFB0
0002FFFF80
013013BFF3
04A0004FF5
08F7009FF2
0C9FEEFF50
1703896100
1000000000
ENDCHAR
STARTCHAR four
ENCODING 52
SWIDTH 606 0
DWIDTH 8 0
BBX 10 12 -1 -1
BITMAP
0000000400
0000009700
000007F700
00005FF600
0003EFF600
001DDDF511
01CE2CF582
0AF97DFAE2
4BAAADFBE1
00000AF491
00000BF420
0027DEED70
ENDCHAR
STARTCHAR five
ENCODING 53
SWIDTH 610 0
DWIDTH 9 0
BBX 9 12 0 -1
BITMAP
0000002400
468ADFFD00
DFFDCABB00
AF40002900
8F98850400
5FFEFFE300
29102DFD00
100006FF10
560008FF10
7FA57FF900
A8EFFFB100
3015640000
ENDCHAR
STARTCHAR six
ENCODING 54
SWIDTH 619 0
DWIDTH 9 0
BBX 9 13 0 -1
BITMAP
0000000100
0000002600
003AA58800
05FFFFF900
1EF913BB00
6FF4541700
BFFFDFE700
EFE303EF40
FF8000AF80
EF70008F90
9FA000CF60
2EF749FB00
02AEEC7100
ENDCHAR
STARTCHAR seven
ENCODING 55
SWIDTH 598 0
DWIDTH 8 0
BBX 9 11 0 -1
BITMAP
CEEDCBBA90
8FBBCDFFA0
3F2007FF40
0C000BFD00
03000EF700
00004FF100
00007FA000
0000BF4000
0000ED0000
005CFD5000
05899AA810
ENDCHAR
STARTCHAR eight
ENCODING 56
SWIDTH 642 0
DWIDTH 9 0
BBX 9 12 0 -2
BITMAP
006BDB6000
0AFC6BFA00
3FF201EF40
4FF000DF50
1EF604FF20
0AFFEFFB00
7FF959FF80
EFC000BFF0
EFB000AFF0
8FF505FF90
07EFFFE700
0002420000
ENDCHAR
STARTCHAR nine
ENCODING 57
SWIDTH 610 0
DWIDTH 9 0
BBX 9 12 0 -2
BITMAP
03BEFC5000
3FF74BF600
CF9002FE10
FF6000EF50
EF9002FF70
7FF75CFF60
08FFFEFF40
351445FE00
1F934DF700
0EFFFFB000
0C27960000
0400000000
ENDCHAR
STARTCHAR colon
ENCODING 58
SWIDTH 223 0
DWIDTH 3 0
BBX 3 7 0 -2
BITMAP
5A40
EFD0
5940
0200
BF90
CFB0
0300
ENDCHAR
STARTCHAR semicolon
ENCODING 59
SWIDTH 228 0
DWIDTH 3 0
BBX 3 8 0 -3
BITMAP
5A50
DFD0
4940
0000
9F80
EFD0
1E80
3800
ENDCHAR
STARTCHAR less
ENCODING 60
SWIDTH 563 0
DWIDTH 8 0
BBX 9 10 0 0
BITMAP
0000000100
0000018D00
00005EFF20
003CFFFA10
19FFFA3000
8FFD300000
04DF900000
0008FC2000
00002CE300
0000006900
ENDCHAR
STARTCHAR equal
ENCODING 61
SWIDTH 531 0
DWIDTH 7 0
BBX 8 6 0 1
BITMAP
77655431
EFFFFFF4
CCCBBAA2
55667782
EFFFFFF4
889ABBC3
ENDCHAR
STARTCHAR greater
ENCODING 62
SWIDTH 576 0
DWIDTH 8 0
BBX 9 10 0 0
BITMAP
1000000000
8B20000000
CFF8100000
7EFFE60000
018EFFC300
0001AFFC10
0005EE7000
008FB20000
1BE5000000
5910000000
ENDCHAR
STARTCHAR question
ENCODING 63
SWIDTH 592 0
DWIDTH 8 0
BBX 9 13 0 -1
BITMAP
2701000000
6FFFEB5000
98115EF700
600003FF10
000001FF30
001009FE10
01ECDFE500
03FF761000
05FA000000
0163000000
6DB1000000
9FF4000000
0550000000
ENDCHAR
STARTCHAR at
ENCODING 64
SWIDTH 792 0
DWIDTH 11 0
BBX 12 11 0 -1
BITMAP
000045530000
008EEBAED400
0BF726519F50
7F74E8CD1DE1
CE09E04F48F5
FC03978F55F7
ED0CD59F36F5
BF2DE5AF28F1
3FB388AF4D80
04DD6219C700
000467720000
ENDCHAR
STARTCHAR A
ENCODING 65
SWIDTH 788 0
DWIDTH 11 0
BBX 16 13 -2 -3
BITMAP
0004543310000000
00006EFF80000000
000001AFE1000000
000000DFF7000000
000007D9FE100000
00001E52FF700000
00007E66CFE10000
0001EFEEDFF70000
0008C0000BFE0000
029F900005FF6000
5ABCDB2000DFD510
0000000001DFFEA3
000000001AA63000
ENDCHAR
STARTCHAR B
ENCODING 66
SWIDTH 774 0
DWIDTH 11 0
BBX 13 12 -2 -2
BITMAP
14443332100000
05DFFFFFFDA300
000BFE3359FF60
0008FE00008FC0
0007FE0004DF80
0005FFDDEFF800
0004FFBBEFC300
0003FF3019FF20
0002FF3005FF60
0000FF549FFC10
004CFFFFDA5000
04875320000000
ENDCHAR
STARTCHAR C
ENCODING 67
SWIDTH 766 0
DWIDTH 11 0
BBX 11 12 0 -1
BITMAP
000000000010
000379840360
01AFFFEFBD40
0CFF6003DF20
5FF700002E00
9FF100000600
AFE000000000
9FF100000100
5FF600000700
0CFE40006E00
01CFFBADFC20
0005ACB93140
ENDCHAR
STARTCHAR D
ENCODING 68
SWIDTH 833 0
DWIDTH 12 0
BBX 14 11 -2 -1
BITMAP
15555555530000
017EFFFFFFE700
0000BFF114DFA0
00009FF0002FF5
00008FE0000CF9
00006FE0000BFA
00006FD0000DF8
00005FC0002FF3
00004FC224DF90
0017EFFFFFD600
00565432210000
ENDCHAR
STARTCHAR E
ENCODING 69
SWIDTH 781 0
DWIDTH 11 0
BBX 12 12 -1 -1
BITMAP
000000000011
46789ABDEFF5
15AFFC7547F5
000DFA0020D4
000CF9055063
000CF90C5012
000BFEEF4020
000BFC9F4070
000AF80930C0
000AF80123F0
04AFFEDDDEF0
255544444440
ENDCHAR
STARTCHAR F
ENCODING 70
SWIDTH 731 0
DWIDTH 10 0
BBX 11 11 -1 -1
BITMAP
35678ABCDEC0
16BFFC764CC0
000EF80006C0
000EF80711B0
000DF81E1060
000DFEFF0010
000DFBAF0000
000CF70C0000
000CF7040000
003DFA100000
28BBCCB61000
ENDCHAR
STARTCHAR G
ENCODING 71
SWIDTH 828 0
DWIDTH 12 0
BBX 13 12 0 -1
BITMAP
00000000013000
00048A962B5000
01BFFEDFFF3000
0CFF6003CF2000
6FF700001E1000
9FF20000060000
AFF0049BBBB920
9FF20004EF7000
4FF70000DF6000
0BFE5004FF7000
01BFFDCFB89000
00037874002000
ENDCHAR
STARTCHAR H
ENCODING 72
SWIDTH 797 0
DWIDTH 11 0
BBX 14 12 -2 -2
BITMAP
00000016CCCCB5
16BBAAA51CFD10
002CFD200AFB00
0009FC000AFB00
0009FC0009FA00
0009FD888CFA00
0008FFDCACFA00
0008FB0008F900
0007FB0008F900
0007FA04AFFFB5
028DFEA5000000
02222222100000
ENDCHAR
STARTCHAR I
ENCODING 73
SWIDTH 445 0
DWIDTH 6 0
BBX 9 12 -1 -2
BITMAP
5999999610
028FFC4000
000EF80000
000EF80000
000DF70000
000CF70000
000CF60000
000BF60000
000BF60000
000AF50000
049EFD8200
1333333300
ENDCHAR
STARTCHAR J
ENCODING 74
SWIDTH 718 0
DWIDTH 10 0
BBX 14 13 -2 -2
BITMAP
00000000000131
000002579CEB30
0001579BFF7000
00000000EF7000
00000000CF9000
000000009FB000
000000007FD000
000000006FE000
178887105FE000
018FC2007FC000
000EC000CF7000
0005FB7BFC0000
000039BA600000
ENDCHAR
STARTCHAR K
ENCODING 75
SWIDTH 934 0
DWIDTH 13 0
BBX 17 13 -1 -2
BITMAP
001123341000000000
39EFFF935666666100
000FFA0006FFB51000
000EF9005ED4000000
000DF93BF800000000
000DFDFFD100000000
000CFC38FB00000000
000BF700CF80000000
000AF7003FF6000000
000AF80007FF300000
05CFFFD820BFE20000
0111111139EFFFB500
000000002222222210
ENDCHAR
STARTCHAR L
ENCODING 76
SWIDTH 712 0
DWIDTH 10 0
BBX 11 11 -1 0
BITMAP
4AFFFFE93000
001EFD100000
000CFC000000
000BFC000000
000BFB000000
000AFB000050
0009FB0000B0
0008FB0004D0
0007FA000AD0
003BFEAA9ED0
28CCBAA98860
ENDCHAR
STARTCHAR M
ENCODING 77
SWIDTH 1033 0
DWIDTH 14 0
BBX 17 12 -1 -1
BITMAP
000000000001211000
4AEEED10001EFFD710
003FFF70008FFB0000
000EFFE102EFFA0000
000DFFF709DFF90000
000BBCFE3F6FF80000
000AC4FFED0FF80000
0009C0AFF60FF70000
0008D02ED00FF60000
0007D008600FF60000
027DFA5205CFFFA500
355555552000000100
ENDCHAR
STARTCHAR N
ENCODING 78
SWIDTH 840 0
DWIDTH 12 0
BBX 14 12 -1 -1
BITMAP
00000011122223
4BEDDB27DFFFA3
004EFF9005F500
000DFFF601F400
000DAEFF41F400
000D84FFE2F300
000D806FFCF300
000D9008FFF300
000D9000AFF300
005ED6100CF200
5CEEEED831D200
00000000002100
ENDCHAR
STARTCHAR O
ENCODING 79
SWIDTH 808 0
DWIDTH 11 0
BBX 11 10 0 -1
BITMAP
000479961000
04DFFCCFE600
2EFC2007FF50
8FF20000CFD0
AFE000009FF0
9FF00000AFE0
5FF50001EF90
09FE635DFC10
005CFFFD7100
000012100000
ENDCHAR
STARTCHAR P
ENCODING 80
SWIDTH 746 0
DWIDTH 10 0
BBX 12 10 -1 -1
BITMAP
5BEDDDCB8500
004FF978BFD2
000FF40007F8
000FF4015DE3
000FFFFFC710
000EF9200000
000EF8000000
000EF9000000
04CFFE930000
366666552000
ENDCHAR
STARTCHAR Q
ENCODING 81
SWIDTH 789 0
DWIDTH 11 0
BBX 13 15 0 -5
BITMAP
00000100000000
005BEFFC500000
08FF957EF90000
3FF70005FF4000
7FF10000EF9000
8FE00000CFA000
6FF20001EF7000
1EFA0009FE1000
03DFCADFD30000
00169CFC000000
000003FF300000
000000EFECA710
000007FFC84000
00008A62000000
00010000000000
ENDCHAR
STARTCHAR R
ENCODING 82
SWIDTH 826 0
DWIDTH 12 0
BBX 16 14 -1 -4
BITMAP
1000000000000000
3AFEEEDCA6100000
002EF9679EE40000
000DF60004FA0000
000DF7126DE30000
000CFFFFF8100000
000CFB17FC000000
000CFA00DF700000
000CFB005FF30000
04CFFFB50CFC0000
2555554424FFDCB5
0000000003FFB500
000000002C820000
0000000030000000
ENDCHAR
STARTCHAR S
ENCODING 83
SWIDTH 661 0
DWIDTH 9 0
BBX 10 12 0 -2
BITMAP
0001100040
07DFFEB6C0
8FB203BFB0
CFA1000790
AFFFB72030
1AFFFFFA10
0126AFFFC0
080001CFF1
1F8100AFD0
3BCECDFB20
4203552000
1000000000
ENDCHAR
STARTCHAR T
ENCODING 84
SWIDTH 754 0
DWIDTH 11 0
BBX 10 11 0 -1
BITMAP
3665555544
5FDDFFEDFE
4E11FF608C
3A01FF603A
2500FF6007
0000FF5001
0000EF5000
0000EF4000
0001EF4000
018EFFF920
0233334440
ENDCHAR
STARTCHAR U
ENCODING 85
SWIDTH 725 0
DWIDTH 10 0
BBX 12 11 -1 -1
BITMAP
000000033322
4ACBA813BFD5
00DFC0002F60
00DFA0002F50
00EFA0001F40
00EFA0000F40
00EFA0000F30
00DFC0002F10
007FF712CB00
0009FFFFB200
000025520000
ENDCHAR
STARTCHAR V
ENCODING 86
SWIDTH 786 0
DWIDTH 11 0
BBX 15 11 -2 -1
BITMAP
000148A322000000
38DFFC1007ECA820
001BFD00007D5100
0004FF5000D60000
0000BFC006D00000
00004FF41D500000
00000CFA7D000000
000005FFE5000000
000000CFC0000000
0000005F40000000
0000000900000000
ENDCHAR
STARTCHAR W
ENCODING 87
SWIDTH 1026 0
DWIDTH 14 0
BBX 19 12 -2 -2
BITMAP
00000002100100000000
38BCDEC502039CA87510
003EFB000D2002EB5100
0009FE105FA002F20000
0002FF60CFF308B00000
0000BFB4FFFC0E500000
00005FFCF7FF9E000000
00000DFFA0DFF8000000
000007FF305FF3000000
000001EB000DC0000000
00000094000660000000
00000010000010000000
ENDCHAR
STARTCHAR X
ENCODING 88
SWIDTH 860 0
DWIDTH 12 0
BBX 14 10 -1 -1
BITMAP
12356783000011
048EFE219EFD71
0003FF806F7000
00006FFBF50000
000009FF700000
00002DFFE20000
0004EC4EFD1000
017FA004FFA000
6CDED501BFFB50
00000028998875
ENDCHAR
STARTCHAR Y
ENCODING 89
SWIDTH 848 0
DWIDTH 12 0
BBX 15 11 -2 -1
BITMAP
0000001100000000
28DEFFA103221100
0017FF7003CFE920
00006FF500A91000
000008FE3AA00000
000000AFFB100000
0000000DF2000000
0000000DF3000000
0000000EF5000000
0000001EF8000000
000017DEEED82000
ENDCHAR
STARTCHAR Z
ENCODING 90
SWIDTH 685 0
DWIDTH 10 0
BBX 10 9 0 0
BITMAP
4566677887
9FEDDDFFF4
5E0009FF70
1B007FFA00
0505FFC103
003EFE2056
02DFF500D5
1CFFD879F4
6BBBBBBCC2
ENDCHAR
STARTCHAR bracketleft
ENCODING 91
SWIDTH 380 0
DWIDTH 5 0
BBX 6 14 0 -2
BITMAP
177665
2FFE81
2FF200
1FF100
1FF100
0FF100
0FF100
0FF000
0EF000
0EF000
0DF000
0DE000
0DF810
08AA93
ENDCHAR
STARTCHAR backslash
ENCODING 92
SWIDTH 680 0
DWIDTH 10 0
BBX 10 14 0 -1
BITMAP
0020000000
4DB0000000
8FF5000000
1DFD000000
05FF700000
00AFE10000
002EF90000
0007FF3000
0000CFC000
00003FF500
000009FD10
000001EF80
0000005FE2
0000000B81
ENDCHAR
STARTCHAR bracketright
ENCODING 93
SWIDTH 371 0
DWIDTH 5 0
BBX 6 14 -1 -2
BITMAP
366775
04BFF9
000AF9
0009F8
0009F8
0009F7
0009F7
0008F7
0008F6
0008F6
0008F5
0007F5
004DF4
17AAA3
ENDCHAR
STARTCHAR asciicircum
ENCODING 94
SWIDTH 671 0
DWIDTH 9 0
BBX 10 9 0 4
BITMAP
0000200000
0002E20000
000AFB0000
004FFF6000
00CFDEE100
06FF53FA00
1EFC006F40
9FF50009D1
8DC0000062
ENDCHAR
STARTCHAR underscore
ENCODING 95
SWIDTH 840 0
DWIDTH 12 0
BBX 12 4 0 -2
BITMAP
000000011111
EEFFFFFFFFFB
FFFFFFFFFFFB
555666677776
ENDCHAR
STARTCHAR grave
ENCODING 96
SWIDTH 707 0
DWIDTH 10 0
BBX 3 4 4 8
BITMAP
1710
BF50
3FA0
0970
ENDCHAR
STARTCHAR a
ENCODING 97
SWIDTH 572 0
DWIDTH 8 0
BBX 9 9 0 -1
BITMAP
017BB71000
1DD57FC000
5FC00CF300
18621AF500
2CFCCFF400
9F800EF200
7FD78FF100
0489AFF920
0000144320
ENDCHAR
STARTCHAR b
ENCODING 98
SWIDTH 723 0
DWIDTH 10 0
BBX 12 14 -2 -3
BITMAP
000246100000
3AFFFF100000
001AFF000000
0007FF000000
0006FE000000
0006FD000000
0005FD133200
0005FFFFFFC2
0004FC103DFC
0003FB0007FE
0003FA000AFA
0006FC67CFA0
008FEDCA8300
012000000000
ENDCHAR
STARTCHAR c
ENCODING 99
SWIDTH 589 0
DWIDTH 8 0
BBX 9 8 0 -1
BITMAP
004BEC7000
08FC6AFA00
3FF106FE00
8FC0006400
8FD0000210
4FF5002B00
09FFBAE600
006BCA5000
ENDCHAR
STARTCHAR d
ENCODING 100
SWIDTH 713 0
DWIDTH 10 0
BBX 11 14 0 -3
BITMAP
000017CCB900
0000001CFC00
0000000BFA00
0000000CF800
0000000DF600
0015651EF400
04EFEEFFF200
2EF6003FF000
6FC0001FD000
5FB0002FB000
1DF7003FA000
02BFEDEF8000
0001446FFB50
000000131000
ENDCHAR
STARTCHAR e
ENCODING 101
SWIDTH 593 0
DWIDTH 8 0
BBX 9 8 0 -1
BITMAP
0015750000
04DFFFC100
2EF307FA00
7FC333FF00
8FFFEEEE20
5FC0000100
0AFC77A300
007CCA3000
ENDCHAR
STARTCHAR f
ENCODING 102
SWIDTH 507 0
DWIDTH 7 0
BBX 9 20 -1 -6
BITMAP
0000155100
0001CEDE40
0008F51EC0
000DF12FD0
000FF10220
000FF10000
000EF30000
0CFFFFFD00
033CF93300
0009F90000
0007FA0000
0005FC0000
0003FE0000
0002FF0000
0000EF2000
0000DF3000
8F40CF2000
9F41ED0000
2ECCF50000
0278300000
ENDCHAR
STARTCHAR g
ENCODING 103
SWIDTH 606 0
DWIDTH 8 0
BBX 10 16 0 -7
BITMAP
0000007B60
000017EFF2
02AFFF9BB0
1DE31AF700
7F8002FE00
9F6000FF20
7F9002FE00
1CF52BF500
08FEEB4000
2FFA762000
0AFFFFFA00
7FC202CF90
EF40004FE0
EF40005FD0
6FD535DF50
04ADED9300
ENDCHAR
STARTCHAR h
ENCODING 104
SWIDTH 678 0
DWIDTH 10 0
BBX 13 13 -2 -1
BITMAP
257ACE00000000
048DFE00000000
0009FE00000000
0008FD00000000
0007FD00000000
0007FC00000000
0006FD99730000
0006FE88DF7000
0005FA003FF100
0004F9001FF100
0004F9000FD000
005DFF801FB000
01211004CDEB20
ENDCHAR
STARTCHAR i
ENCODING 105
SWIDTH 393 0
DWIDTH 6 0
BBX 7 12 -1 0
BITMAP
00001000
001DF400
003FF900
0008B200
14444200
03AFF800
000CF700
000BF600
000BF500
000AF300
001CF400
04DFFF70
ENDCHAR
STARTCHAR j
ENCODING 106
SWIDTH 385 0
DWIDTH 5 0
BBX 6 16 -1 -5
BITMAP
001300
00DF80
01FFA0
005920
1579A2
039FF4
000CF5
000BF7
0009F8
0007FA
0005FB
0004FC
7802FC
EF12FB
9E59F5
07BA50
ENDCHAR
STARTCHAR k
ENCODING 107
SWIDTH 749 0
DWIDTH 10 0
BBX 14 14 -2 -2
BITMAP
00013400000000
26AEFF10000000
0008FF10000000
0007FF17EEEE92
0006FF008F9200
0005FF08E50000
0004FFAF800000
0003FFDEE20000
0002FE06FA0000
0002FD00BF4000
0001FD102ED000
017EFFD717FB62
012100004EC963
00000001310000
ENDCHAR
STARTCHAR l
ENCODING 108
SWIDTH 369 0
DWIDTH 5 0
BBX 8 13 -2 -1
BITMAP
17CFFF10
0008FF10
0006FF00
0006FF00
0005FE00
0004FE00
0004FD00
0003FD00
0002FC00
0002FB00
0001FB00
0002FC10
007EEEC4
ENDCHAR
STARTCHAR m
ENCODING 109
SWIDTH 990 0
DWIDTH 14 0
BBX 17 8 -2 0
BITMAP
001368155101430000
16CFFFFFFEBFFF8000
0005FE52BFF65FF100
0003FC004FA00BF200
0001FA004F700BF100
0005FC204F604EF400
00465566CFB5567740
000000122221000000
ENDCHAR
STARTCHAR n
ENCODING 110
SWIDTH 643 0
DWIDTH 9 0
BBX 12 8 -2 0
BITMAP
001368145100
16CFFFEFFE20
0005FE52BF80
0003FC004FA0
0001FA004F80
0005FC204F60
00465556CFB3
000000122221
ENDCHAR
STARTCHAR o
ENCODING 111
SWIDTH 705 0
DWIDTH 10 0
BBX 10 8 0 -1
BITMAP
00389A7200
1CFD87DFA0
9FC0001DF7
CF700009FA
BF90000BF9
3EF6117FE2
029EFFD820
0000110000
ENDCHAR
STARTCHAR p
ENCODING 112
SWIDTH 723 0
DWIDTH 10 0
BBX 12 12 -2 -4
BITMAP
2568AA000000
038EFE9BA710
0006FF869FE3
0005FE0006FC
0004FE0002FF
0003FE0007FC
0002FFB9BFE2
0002FE79A710
0001FE000000
0000FF000000
004AFFC61000
036554331000
ENDCHAR
STARTCHAR q
ENCODING 113
SWIDTH 682 0
DWIDTH 10 0
BBX 12 12 0 -4
BITMAP
000000BDDD61
04BEFDEFA100
4FE623DF7000
CF6000CF7000
CF5000CF6000
8FC101DF5000
09FFDFFF4000
002553DF3000
000000DF2000
000002EF2000
00018DEFF930
000000000110
ENDCHAR
STARTCHAR r
ENCODING 114
SWIDTH 595 0
DWIDTH 8 0
BBX 10 10 -1 -1
BITMAP
0000230110
38BEFAAFF6
037FFFAEFB
000DF90383
000BF60000
0009F50000
0008F50000
001AFC6100
05DDCA9710
0100000000
ENDCHAR
STARTCHAR s
ENCODING 115
SWIDTH 533 0
DWIDTH 7 0
BBX 8 10 0 -1
BITMAP
00131010
1AFFF790
8F504DE0
AFB301B0
3EFFD730
22AFFFD1
68016EF6
8FB53CF4
96ADEC50
10000000
ENDCHAR
STARTCHAR t
ENCODING 116
SWIDTH 422 0
DWIDTH 6 0
BBX 8 14 -1 -1
BITMAP
00018000
0005D000
000BC000
04AFB000
2FFFFFE3
00BF9561
00CF6000
00DF4000
00EF3000
00FF2010
01FF0060
00EF67B0
008FFF40
00046200
ENDCHAR
STARTCHAR u
ENCODING 117
SWIDTH 614 0
DWIDTH 9 0
BBX 11 8 -1 -1
BITMAP
6DDD26AAA400
03FF003EF400
02FE000DF200
02FD000EE000
01FD000EC000
00CF528F9000
003DFFCFD720
000012086300
ENDCHAR
STARTCHAR v
ENCODING 118
SWIDTH 639 0
DWIDTH 9 0
BBX 13 9 -2 -1
BITMAP
00025750000000
28EFF638764310
001EF603CFB500
0007FD00C90000
0000DF55F20000
00005FCC900000
00000BFF200000
000003F9000000
00000092000000
ENDCHAR
STARTCHAR w
ENCODING 119
SWIDTH 805 0
DWIDTH 11 0
BBX 15 9 -2 -1
BITMAP
2789AA5021787750
028FF404A01DD500
000CF90BF22F5000
0005FF4FF89D0000
0000DFECFEE60000
00006FF3BFE00000
00000DB03F700000
000006400A100000
0000000001000000
ENDCHAR
STARTCHAR x
ENCODING 120
SWIDTH 717 0
DWIDTH 10 0
BBX 14 9 -2 -1
BITMAP
01246894000000
158CFE26BBCA50
0001CFC1BE6000
00002EFEC20000
000004FF600000
00003DCFF30000
0038EE25FD1000
02456773CFEA61
00000017643100
ENDCHAR
STARTCHAR y
ENCODING 121
SWIDTH 655 0
DWIDTH 9 0
BBX 10 15 -1 -7
BITMAP
3300000000
0BD836CA95
01FFA03DFB
03FF500AFA
06FF100AF9
07FF200BF9
02EFEAAEF8
0028AA8DF7
0000000CF7
0000000CF6
0194000EF5
06FA003FF1
03F801BF90
006EFFF910
0001341000
ENDCHAR
STARTCHAR z
ENCODING 122
SWIDTH 549 0
DWIDTH 8 0
BBX 9 9 0 -1
BITMAP
2233344510
AFFFEFFA00
7C00AFD100
4807FF3000
134FF61300
02EFA07500
1CFF42D600
7DEFFFF700
0000123200
ENDCHAR
STARTCHAR braceleft
ENCODING 123
SWIDTH 708 0
DWIDTH 10 0
BBX 8 14 1 -2
BITMAP
00477663
008FFC50
008FB000
007FB000
007FA000
006FA000
04BFA000
5AEFA000
005F9000
004F9000
004F9000
003F9000
003FD500
002AAA81
ENDCHAR
STARTCHAR bar
ENCODING 124
SWIDTH 304 0
DWIDTH 4 0
BBX 3 14 1 -2
BITMAP
AB30
FF40
FF40
FF40
FF30
EF30
EF30
EF30
EF30
EF20
DF20
DF20
DF20
1100
ENDCHAR
STARTCHAR braceright
ENCODING 125
SWIDTH 517 0
DWIDTH 7 0
BBX 8 14 0 -2
BITMAP
46677200
17DFF500
000EF400
000EF400
000EF300
000DF300
000DF930
000DFE93
000CF200
000CF100
000CF100
000CF100
017EF000
29AAA000
ENDCHAR
STARTCHAR asciitilde
ENCODING 126
SWIDTH 466 0
DWIDTH 7 0
BBX 7 3 0 3
BITMAP
69951460
FFFFFF80
B45ADB40
ENDCHAR
STARTCHAR uni00A0
ENCODING 160
SWIDTH 320 0
DWIDTH 4 0
BBX 1 1 0 0
BITMAP
00
ENDCHAR
STARTCHAR exclamdown
ENCODING 161
SWIDTH 305 0
DWIDTH 4 0
BBX 5 13 0 -5
BITMAP
018700
05FF30
007600
04D500
07F600
0AF500
0CF500
0FF400
3FF300
6FF300
8FF200
BFF100
234000
ENDCHAR
STARTCHAR cent
ENCODING 162
SWIDTH 417 0
DWIDTH 6 0
BBX 7 12 -1 -2
BITMAP
000BF100
000AF000
006EFA10
06F41DA0
0EB00980
2F900000
0FB00030
0AF72590
01AFFB10
000AF000
000BF100
00057100
ENDCHAR
STARTCHAR sterling
ENCODING 163
SWIDTH 658 0
DWIDTH 9 0
BBX 10 11 0 -1
BITMAP
0000230051
004DFFD6D0
03FF53BFC0
17FB000BA0
EFFFDD8280
99DF874031
89CFBA7014
BCEFEE9084
00DD2223E3
07FFFFFFF2
0456678891
ENDCHAR
STARTCHAR currency
ENCODING 164
SWIDTH 358 0
DWIDTH 5 0
BBX 5 6 0 2
BITMAP
130210
BEDEB0
4F6E60
3F8E50
BDBDB0
210120
ENDCHAR
STARTCHAR yen
ENCODING 165
SWIDTH 796 0
DWIDTH 11 0
BBX 14 10 -2 0
BITMAP
00001220000000
28CEF701565541
0019FA001BE930
0000AF904D2000
00000AFAD20000
000045EF630000
00008ADFA90000
00008DEFEE0000
000000BF720000
00027BCCCA6100
ENDCHAR
STARTCHAR brokenbar
ENCODING 166
SWIDTH 304 0
DWIDTH 4 0
BBX 3 14 1 -2
BITMAP
AB30
FF40
FF40
FF40
FF40
4310
0000
4300
EF20
EF20
EF20
DF20
DF20
1100
ENDCHAR
STARTCHAR section
ENCODING 167
SWIDTH 646 0
DWIDTH 9 0
BBX 9 17 0 -4
BITMAP
0003300100
04DFFD4600
2EB117ED00
6F90004D00
4FF9200600
0AFFFB4000
06FFFFF900
2FA27DFF50
6F9001CF70
4FFA31CF40
0AFFFFF600
007EFFFA00
14016DFF50
2E2000CF70
3FE622CF30
489EFFD500
3000110000
ENDCHAR
STARTCHAR dieresis
ENCODING 168
SWIDTH 708 0
DWIDTH 10 0
BBX 5 3 2 11
BITMAP
020020
1F78E0
062250
ENDCHAR
STARTCHAR copyright
ENCODING 169
SWIDTH 700 0
DWIDTH 10 0
BBX 10 10 0 0
BITMAP
0004664000
05EECBEC30
4FA2772BE2
CC1D57B1E8
E75D0140BB
E85E0020BB
BC1DA781E7
2E92652BD1
03CEBCF910
0003552000
ENDCHAR
STARTCHAR ordfeminine
ENCODING 170
SWIDTH 399 0
DWIDTH 6 0
BBX 7 7 -1 5
BITMAP
00010000
05DED400
0CC0CC00
05B9DD00
1FC4EB00
0CFCFB00
00139850
ENDCHAR
STARTCHAR guillemotleft
ENCODING 171
SWIDTH 424 0
DWIDTH 6 0
BBX 6 8 0 -1
BITMAP
008027
06E0B9
3F77F3
CF3FC0
7F5CE1
0BB2E6
01D15A
001001
ENDCHAR
STARTCHAR logicalnot
ENCODING 172
SWIDTH 541 0
DWIDTH 8 0
BBX 9 8 0 0
BITMAP
4000000200
9100005500
BFFEDDE400
BFFFEEF300
900004F200
300001F100
000008F900
0000000110
ENDCHAR
STARTCHAR sfthyphen
ENCODING 173
SWIDTH 530 0
DWIDTH 7 0
BBX 8 4 0 3
BITMAP
10000000
EFFEDCC4
FFFFFFF5
55443331
ENDCHAR
STARTCHAR registered
ENCODING 174
SWIDTH 700 0
DWIDTH 10 0
BBX 10 10 0 0
BITMAP
0002442000
04CFDDFA20
3FB2002CD1
BD2AEBE7F8
E702F662CB
E800F100BB
BC01E611E8
3F75543AE1
05DCABEB20
0015763000
ENDCHAR
STARTCHAR macron
ENCODING 175
SWIDTH 705 0
DWIDTH 10 0
BBX 5 2 3 10
BITMAP
7FFF60
6DDD60
ENDCHAR
STARTCHAR degree
ENCODING 176
SWIDTH 364 0
DWIDTH 5 0
BBX 5 4 0 6
BITMAP
09EA00
3F5E50
2F9F30
04A500
ENDCHAR
STARTCHAR plusminus
ENCODING 177
SWIDTH 607 0
DWIDTH 9 0
BBX 9 9 0 0
BITMAP
000BC40000
000DF50000
AFEFFDCB20
AFFFFFFF20
233CF41100
000BF20000
3656732100
8FFFFFFF10
8DDCCBBB00
ENDCHAR
STARTCHAR twosuperior
ENCODING 178
SWIDTH 440 0
DWIDTH 6 0
BBX 6 8 0 5
BITMAP
302410
5CFFE5
4E31DD
2802EC
136ED7
1CE61C
BFCACC
9ABCC9
ENDCHAR
STARTCHAR threesuperior
ENCODING 179
SWIDTH 442 0
DWIDTH 6 0
BBX 6 9 0 4
BITMAP
200000
87BC81
5F98FA
2900EC
01CEF8
2547FE
5D33FE
8AFFE4
301200
ENDCHAR
STARTCHAR acute
ENCODING 180
SWIDTH 694 0
DWIDTH 10 0
BBX 3 4 4 10
BITMAP
1610
6F80
BE10
5500
ENDCHAR
STARTCHAR mu
ENCODING 181
SWIDTH 1000 0
DWIDTH 14 0
BBX 11 11 0 -4
BITMAP
4CDD549AA700
01DF402BF800
00CF3009F600
00CF200AF300
00CF200AF100
00CF926ED000
00BFFFEDE930
00BF22076410
00BF10000000
00BF10000000
006A10000000
ENDCHAR
STARTCHAR paragraph
ENCODING 182
SWIDTH 782 0
DWIDTH 11 0
BBX 13 11 -1 -1
BITMAP
00000112233310
017CEFFFFFB400
1DF94CE5F60000
3FB00BD2F50000
08FB6DD5F50000
0027AEFFF50000
00000CB3F50000
00000CB4F40000
00000CB9F60000
00016EFFFFB300
00366554332200
ENDCHAR
STARTCHAR periodcentered
ENCODING 183
SWIDTH 226 0
DWIDTH 3 0
BBX 3 3 0 4
BITMAP
2720
CFE0
6D90
ENDCHAR
STARTCHAR cedilla
ENCODING 184
SWIDTH 780 0
DWIDTH 11 0
BBX 3 5 4 -3
BITMAP
2A00
BD50
37F0
CAE0
4830
ENDCHAR
STARTCHAR onesuperior
ENCODING 185
SWIDTH 390 0
DWIDTH 5 0
BBX 5 8 0 4
BITMAP
47BE20
15DF20
00BF10
00BF10
00AF10
00AF00
08FFA0
011110
ENDCHAR
STARTCHAR ordmasculine
ENCODING 186
SWIDTH 449 0
DWIDTH 6 0
BBX 8 6 -1 5
BITMAP
016AA710
1CE65DD1
4F8006F6
2FB009F3
04CEED50
00011000
ENDCHAR
STARTCHAR guillemotright
ENCODING 187
SWIDTH 415 0
DWIDTH 6 0
BBX 6 8 0 -1
BITMAP
810800
AA1E60
3F68E2
0CF3FB
1EB5F6
7E1CA0
B41D10
100100
ENDCHAR
STARTCHAR onequarter
ENCODING 188
SWIDTH 918 0
DWIDTH 13 0
BBX 13 15 0 -2
BITMAP
00000000002000
47BE200006E500
15DF20001EF200
00BF10008F8000
00BF1002FD0000
00AF100BF40000
00AF005FA03300
08FFA1DE12E300
011118F61CF300
00002EC0BFF330
0000AF38EAF940
0004F86FFFFF40
000CD11118F730
007F40016DF920
00590003333320
ENDCHAR
STARTCHAR onehalf
ENCODING 189
SWIDTH 1007 0
DWIDTH 14 0
BBX 14 15 0 -2
BITMAP
00000000002000
47BE200006E500
15DF20001EF200
00BF10008F8000
00BF1002FD0000
00AF100BF40000
00AF005FA00000
08FFA1DE301200
011118F66BFFD3
00002EC05F43EC
0000AF303801EC
0004F800135DE7
000CD1001BE72B
007F4000BFB9CB
00590000BCDDE9
ENDCHAR
STARTCHAR threequarters
ENCODING 190
SWIDTH 936 0
DWIDTH 13 0
BBX 13 15 0 -2
BITMAP
20000000002000
87BC810002F800
5F98FA000BF600
2900EC004FB000
01CEF800DF2000
2547FE07F80000
5D33FE2ED01500
8AFFE4AF40B700
301204FA09F700
00000CE17FF630
00006F65F9F980
0001EC3EFEFF80
0009F31114F770
003F80005BFB30
003A1002333330
ENDCHAR
STARTCHAR questiondown
ENCODING 191
SWIDTH 568 0
DWIDTH 8 0
BBX 9 13 -1 -5
BITMAP
000002EF70
000002EFA0
0000013400
000007F600
00002DF500
01AFFFF300
0BFD424100
1FF4000000
1FF3000030
0AFB1002A0
00AFEBBF80
0002565950
0000000110
ENDCHAR
STARTCHAR Agrave
ENCODING 192
SWIDTH 788 0
DWIDTH 11 0
BBX 16 17 -2 -3
BITMAP
0000004400000000
000004FC00000000
000000BF20000000
0000003A20000000
0004543310000000
00006EFF80000000
000001AFE1000000
000000DFF7000000
000007D9FE100000
00001E52FF700000
00007E66CFE10000
0001EFEEDFF70000
0008C0000BFE0000
029F900005FF6000
5ABCDB2000DFD510
0000000001DFFEA3
000000001AA63000
ENDCHAR
STARTCHAR Aacute
ENCODING 193
SWIDTH 788 0
DWIDTH 11 0
BBX 16 17 -2 -3
BITMAP
0000000620000000
0000000EE0000000
0000005F60000000
0000002800000000
0004543310000000
00006EFF80000000
000001AFE1000000
000000DFF7000000
000007D9FE100000
00001E52FF700000
00007E66CFE10000
0001EFEEDFF70000
0008C0000BFE0000
029F900005FF6000
5ABCDB2000DFD510
0000000001DFFEA3
000000001AA63000
ENDCHAR
STARTCHAR Acircumflex
ENCODING 194
SWIDTH 788 0
DWIDTH 11 0
BBX 16 17 -2 -3
BITMAP
0000001C20000000
000000BFD1000000
000008D6DA000000
0000031003000000
0004543310000000
00006EFF80000000
000001AFE1000000
000000DFF7000000
000007D9FE100000
00001E52FF700000
00007E66CFE10000
0001EFEEDFF70000
0008C0000BFE0000
029F900005FF6000
5ABCDB2000DFD510
0000000001DFFEA3
000000001AA63000
ENDCHAR
STARTCHAR Atilde
ENCODING 195
SWIDTH 788 0
DWIDTH 11 0
BBX 16 16 -2 -3
BITMAP
0000003102000000
000007FFBB000000
0000067AE8000000
0004543310000000
00006EFF80000000
000001AFE1000000
000000DFF7000000
000007D9FE100000
00001E52FF700000
00007E66CFE10000
0001EFEEDFF70000
0008C0000BFE0000
029F900005FF6000
5ABCDB2000DFD510
0000000001DFFEA3
000000001AA63000
ENDCHAR
STARTCHAR Adieresis
ENCODING 196
SWIDTH 788 0
DWIDTH 11 0
BBX 16 16 -2 -3
BITMAP
0000002020000000
000007F1E8000000
0000026052000000
0004543310000000
00006EFF80000000
000001AFE1000000
000000DFF7000000
000007D9FE100000
00001E52FF700000
00007E66CFE10000
0001EFEEDFF70000
0008C0000BFE0000
029F900005FF6000
5ABCDB2000DFD510
0000000001DFFEA3
000000001AA63000
ENDCHAR
STARTCHAR Aring
ENCODING 197
SWIDTH 788 0
DWIDTH 11 0
BBX 16 15 -2 -3
BITMAP
0000005C70000000
000000C5E0000000
000454AEA0000000
00006EFF70000000
000001AFE1000000
000000DFF7000000
000007D9FE100000
00001E52FF700000
00007E66CFE10000
0001EFEEDFF70000
0008C0000BFD0000
029F900005FF6000
5ABCDB2000DFD510
0000000001DFFEA3
000000001AA63000
ENDCHAR
STARTCHAR AE
ENCODING 198
SWIDTH 1019 0
DWIDTH 14 0
BBX 18 12 -4 -1
BITMAP
000000000000000011
0000059AABCCDEFFFB
0000006EFFFFA653DA
00000003FBFF602079
0000000AD2FF609018
0000004F41FF63D002
000001D901FFEED002
000008F988FFABC025
00002FDCCCFF41B065
0000B90000EF4020B5
016CF6016CFFDDDDF6
179ABC855554444441
ENDCHAR
STARTCHAR Ccedilla
ENCODING 199
SWIDTH 766 0
DWIDTH 11 0
BBX 11 16 0 -5
BITMAP
000000000010
000379840360
01AFFFEFBD40
0CFF6003DF20
5FF700002E00
9FF100000600
AFE000000000
9FF100000100
5FF600000700
0CFE40006E00
01BFFBADFC20
0005BEB93140
0000BB100000
00017BC00000
000198D00000
00019C500000
ENDCHAR
STARTCHAR Egrave
ENCODING 200
SWIDTH 781 0
DWIDTH 11 0
BBX 12 16 -1 -1
BITMAP
000002600000
00001EF10000
000007F60000
000001A40000
000000000011
46789ABDEFF5
15AFFC7547F5
000DFA0020D4
000CF9055063
000CF90C5012
000BFEEF4020
000BFC9F4070
000AF80930C0
000AF80123F0
04AFFEDDDEF0
255544444440
ENDCHAR
STARTCHAR Eacute
ENCODING 201
SWIDTH 781 0
DWIDTH 11 0
BBX 12 15 -1 -1
BITMAP
000000440000
000000AF3000
000001FB0000
000001730011
46789ABDEFF5
15AFFC7547F5
000DFA0020D4
000CF9055063
000CF90C5012
000BFEEF4020
000BFC9F4070
000AF80930C0
000AF80123F0
04AFFEDDDEF0
255544444440
ENDCHAR
STARTCHAR Ecircumflex
ENCODING 202
SWIDTH 781 0
DWIDTH 11 0
BBX 12 15 -1 -1
BITMAP
000004B00000
00002EF90000
0000CB7E6000
000040012011
46789ABDEFF5
15AFFC7547F5
000DFA0020D4
000CF9055063
000CF90C5012
000BFEEF4020
000BFC9F4070
000AF80930C0
000AF80123F0
04AFFEDDDEF0
255544444440
ENDCHAR
STARTCHAR Edieresis
ENCODING 203
SWIDTH 781 0
DWIDTH 11 0
BBX 12 14 -1 -1
BITMAP
000002020000
00007F1E8000
000026052011
46789ABDEFF5
15AFFC7547F5
000DFA0020D4
000CF9055063
000CF90C5012
000BFEEF4020
000BFC9F4070
000AF80930C0
000AF80123F0
04AFFEDDDEF0
255544444440
ENDCHAR
STARTCHAR Igrave
ENCODING 204
SWIDTH 445 0
DWIDTH 6 0
BBX 9 17 -1 -2
BITMAP
0005400000
005FA00000
000DE10000
0005910000
0000000000
5999999610
028FFC4000
000EF80000
000EF80000
000DF70000
000CF70000
000CF60000
000BF60000
000BF60000
000AF50000
049EFD8200
1333333300
ENDCHAR
STARTCHAR Iacute
ENCODING 205
SWIDTH 445 0
DWIDTH 6 0
BBX 9 16 -1 -2
BITMAP
0000530000
0000EE1000
0004F70000
0002810000
5999999610
028FFC4000
000EF80000
000EF80000
000DF70000
000CF70000
000CF60000
000BF60000
000BF60000
000AF50000
049EFD8200
1333333300
ENDCHAR
STARTCHAR Icircumflex
ENCODING 206
SWIDTH 445 0
DWIDTH 6 0
BBX 9 16 -1 -2
BITMAP
0003C10000
001EFA0000
00CC7E7000
0040013000
5999999610
028FFC4000
000EF80000
000EF80000
000DF70000
000CF70000
000CF60000
000BF60000
000BF60000
000AF50000
049EFD8200
1333333300
ENDCHAR
STARTCHAR Idieresis
ENCODING 207
SWIDTH 445 0
DWIDTH 6 0
BBX 9 15 -1 -2
BITMAP
0011020000
00BC3F4000
0034061000
5999999610
028FFC4000
000EF80000
000EF80000
000DF70000
000CF70000
000CF60000
000BF60000
000BF60000
000AF50000
049EFD8200
1333333300
ENDCHAR
STARTCHAR Eth
ENCODING 208
SWIDTH 1000 0
DWIDTH 14 0
BBX 14 11 0 -1
BITMAP
35555555520000
04AFFFFFFFD500
0002FFB016EF60
0000FFA0006FF1
0344EFA2102FF5
09FFFFFFD00FF6
0466DFA5402FF4
0000AF70006FE1
0000AF7226EF60
003AFFFFFFB400
02655432200000
ENDCHAR
STARTCHAR Ntilde
ENCODING 209
SWIDTH 840 0
DWIDTH 12 0
BBX 14 15 -1 -1
BITMAP
00000220100000
00003FFCE10000
0000398DC00000
00000011122223
4BEDDB27DFFFA3
004EFF9005F500
000DFFF601F400
000DAEFF41F400
000D84FFE2F300
000D806FFCF300
000D9008FFF300
000D9000AFF300
005ED6100CF200
5CEEEED831D200
00000000002100
ENDCHAR
STARTCHAR Ograve
ENCODING 210
SWIDTH 808 0
DWIDTH 11 0
BBX 11 15 0 -1
BITMAP
000005300000
00006F900000
00001DE00000
000005910000
000000000000
000479961000
04DFFCCFE600
2EFC2007FF50
8FF20000CFD0
AFE000009FF0
9FF00000AFE0
5FF50001EF90
09FE635DFC10
005CFFFD7100
000012100000
ENDCHAR
STARTCHAR Oacute
ENCODING 211
SWIDTH 808 0
DWIDTH 11 0
BBX 11 14 0 -1
BITMAP
000003500000
000008F50000
00000DC00000
000006400000
000479961000
04DFFCCFE600
2EFC2007FF50
8FF20000CFD0
AFE000009FF0
9FF00000AFE0
5FF50001EF90
09FE635DFC10
005CFFFD7100
000012100000
ENDCHAR
STARTCHAR Ocircumflex
ENCODING 212
SWIDTH 808 0
DWIDTH 11 0
BBX 11 14 0 -1
BITMAP
00000B400000
00009FE20000
0006E7CC0000
000210040000
000479961000
04DFFCCFE600
2EFC2007FF50
8FF20000CFD0
AFE000009FF0
9FF00000AFE0
5FF50001EF90
09FE635DFC10
005CFFFD7100
000012100000
ENDCHAR
STARTCHAR Otilde
ENCODING 213
SWIDTH 808 0
DWIDTH 11 0
BBX 11 14 0 -1
BITMAP
000022010000
0003FFCE1000
000398DC0000
000000000000
000479961000
04DFFCCFE600
2EFC2007FF50
8FF20000CFD0
AFE000009FF0
9FF00000AFE0
5FF50001EF90
09FE635DFC10
005CFFFD7100
000012100000
ENDCHAR
STARTCHAR Odieresis
ENCODING 214
SWIDTH 808 0
DWIDTH 11 0
BBX 11 13 0 -1
BITMAP
000020110000
0005F3DA0000
000160430000
000479961000
04DFFCCFE600
2EFC2007FF50
8FF20000CFD0
AFE000009FF0
9FF00000AFE0
5FF50001EF90
09FE635DFC10
005CFFFD7100
000012100000
ENDCHAR
STARTCHAR multiply
ENCODING 215
SWIDTH 556 0
DWIDTH 8 0
BBX 8 8 0 1
BITMAP
03100120
4EC11CD1
6FFBCFF5
05FFFF50
00CFFA00
0AFEEF80
8FD24EF5
2B200390
ENDCHAR
STARTCHAR Oslash
ENCODING 216
SWIDTH 808 0
DWIDTH 11 0
BBX 11 12 0 -2
BITMAP
00000006C300
0004799EF800
03DFFCEFF700
2EFC22EFFF50
8FF209F9CFD0
AFE03FE19FF0
9FF0BF50AFE0
5FF9FB01EF90
09FFF55DFC10
009FFFFD7100
00DC12100000
004300000000
ENDCHAR
STARTCHAR Ugrave
ENCODING 217
SWIDTH 725 0
DWIDTH 10 0
BBX 12 15 -1 -1
BITMAP
000003500000
00002FE00000
000009F40000
000002B30000
000000033322
4ACBA813BFD5
00DFC0002F60
00DFA0002F50
00EFA0001F40
00EFA0000F40
00EFA0000F30
00DFC0002F10
007FF712CB00
0009FFFFB200
000025520000
ENDCHAR
STARTCHAR Uacute
ENCODING 218
SWIDTH 725 0
DWIDTH 10 0
BBX 12 15 -1 -1
BITMAP
000000710000
000004FA0000
000009F20000
000004700000
000000033322
4ACBA813BFD5
00DFC0002F60
00DFA0002F50
00EFA0001F40
00EFA0000F40
00EFA0000F30
00DFC0002F10
007FF712CB00
0009FFFFB200
000025520000
ENDCHAR
STARTCHAR Ucircumflex
ENCODING 219
SWIDTH 725 0
DWIDTH 10 0
BBX 12 15 -1 -1
BITMAP
000004B00000
00002EF90000
0000CB7E6000
000040012000
000000033322
4ACBA813BFD5
00DFC0002F60
00DFA0002F50
00EFA0001F40
00EFA0000F40
00EFA0000F30
00DFC0002F10
007FF712CB00
0009FFFFB200
000025520000
ENDCHAR
STARTCHAR Udieresis
ENCODING 220
SWIDTH 725 0
DWIDTH 10 0
BBX 12 14 -1 -1
BITMAP
000002020000
00007F1E8000
000026052000
000000033322
4ACBA813BFD5
00DFC0002F60
00DFA0002F50
00EFA0001F40
00EFA0000F40
00EFA0000F30
00DFC0002F10
007FF712CB00
0009FFFFB200
000025520000
ENDCHAR
STARTCHAR Yacute
ENCODING 221
SWIDTH 848 0
DWIDTH 12 0
BBX 15 15 -2 -1
BITMAP
0000000035000000
000000009F500000
00000000EC000000
0000000074000000
0000001100000000
28DEFFA103221100
0017FF7003CFE920
00006FF500A91000
000008FE3AA00000
000000AFFB100000
0000000DF2000000
0000000DF3000000
0000000EF5000000
0000001EF8000000
000017DEEED82000
ENDCHAR
STARTCHAR Thorn
ENCODING 222
SWIDTH 745 0
DWIDTH 10 0
BBX 12 10 -1 -1
BITMAP
5BEDDDB50000
004FF7100000
000FFFFEC820
000FF6347EE4
000FF40007F8
000EF6359FC1
000EFFDB8300
000EF8000000
04CFFE930000
366666552000
ENDCHAR
STARTCHAR germandbls
ENCODING 223
SWIDTH 986 0
DWIDTH 14 0
BBX 15 19 -1 -6
BITMAP
000019EEB2000000
0000CF75BE400000
0005F7001EC00000
000BF3000AF20000
000CF2000AF10000
000EF3001ED00000
0CFFF500AF600000
033BF703FD000000
0009F807FA000000
0007FA06FE500000
0004FC01BFFD7100
0002FE0128FFFE40
0001FF12B017EFD0
0000EF23FB317FC0
0100DF34BBFFFB20
8F40DF2310121000
9F41FD0000000000
2ECCF40000000000
0178300000000000
ENDCHAR
STARTCHAR agrave
ENCODING 224
SWIDTH 572 0
DWIDTH 8 0
BBX 9 14 0 -1
BITMAP
0000350000
0002FE0000
00009F4000
00002B3000
0000000000
017BB71000
1DD57FC000
5FC00CF300
18621AF500
2CFCCFF400
9F800EF200
7FD78FF100
0489AFF920
0000144320
ENDCHAR
STARTCHAR aacute
ENCODING 225
SWIDTH 572 0
DWIDTH 8 0
BBX 9 13 0 -1
BITMAP
0000350000
0000AF4000
0001EB0000
0001730000
017BB71000
1DD57FC000
5FC00CF300
18621AF500
2CFCCFF400
9F800EF200
7FD78FF100
0489AFF920
0000144320
ENDCHAR
STARTCHAR acircumflex
ENCODING 226
SWIDTH 572 0
DWIDTH 8 0
BBX 9 13 0 -1
BITMAP
0001C30000
000BFD1000
008D6CB000
0031004000
017BB71000
1DD57FC000
5FC00CF300
18621AF500
2CFCCFF400
9F800EF200
7FD78FF100
0489AFF920
0000144320
ENDCHAR
STARTCHAR atilde
ENCODING 227
SWIDTH 572 0
DWIDTH 8 0
BBX 9 13 0 -1
BITMAP
0003102000
007FFBC000
0067AE9000
0000000000
017BB71000
1DD57FC000
5FC00CF300
18621AF500
2CFCCFF400
9F800EF200
7FD78FF100
0489AFF920
0000144320
ENDCHAR
STARTCHAR adieresis
ENCODING 228
SWIDTH 572 0
DWIDTH 8 0
BBX 9 12 0 -1
BITMAP
0011020000
00BC4F4000
0044061000
017BB71000
1DD57FC000
5FC00CF300
18621AF500
2CFCCFF400
9F800EF200
7FD78FF100
0489AFF920
0000144320
ENDCHAR
STARTCHAR aring
ENCODING 229
SWIDTH 572 0
DWIDTH 8 0
BBX 9 12 0 -1
BITMAP
0001620000
000AAD0000
000A9D0000
017CFA1000
1DD57FC000
5FC00CF300
18621AF500
2CFCCFF400
9F800EF200
7FD78FF100
0489AFF920
0000144320
ENDCHAR
STARTCHAR ae
ENCODING 230
SWIDTH 1022 0
DWIDTH 14 0
BBX 15 9 0 -1
BITMAP
028BA60002420000
3EB5AF84DFFFA100
9F801FEEF407F900
39421EFFC555FF10
5EECDFFFEBBBBA20
EF404FEFE2001300
CFB7AFB6EFDDB100
0699CFE714520000
0000343310000000
ENDCHAR
STARTCHAR ccedilla
ENCODING 231
SWIDTH 589 0
DWIDTH 8 0
BBX 9 12 0 -5
BITMAP
004BEC7000
08FC6AFA00
3FF106FE00
8FC0006400
7FD0000210
4FF5002B00
09FFBAE600
006CEB5000
000BB10000
0017BC0000
00198D0000
0019C50000
ENDCHAR
STARTCHAR egrave
ENCODING 232
SWIDTH 593 0
DWIDTH 8 0
BBX 9 12 0 -1
BITMAP
0000440000
0004FC0000
0000BF2000
00003A2000
0015750000
04DFFFC100
2EF307FA00
7FC333FF00
8FFFEEEE20
5FC0000100
0AFC77A300
007CCA3000
ENDCHAR
STARTCHAR eacute
ENCODING 233
SWIDTH 593 0
DWIDTH 8 0
BBX 9 12 0 -1
BITMAP
0000540000
0000CF2000
0002F90000
0001810000
0015750000
04DFFFC100
2EF307FA00
7FC333FF00
8FFFEEEE20
5FC0000100
0AFC77A300
007CCA3000
ENDCHAR
STARTCHAR ecircumflex
ENCODING 234
SWIDTH 593 0
DWIDTH 8 0
BBX 9 12 0 -1
BITMAP
0001C30000
000BFD1000
008D6CB000
0031004000
0015750000
04DFFFC100
2EF307FA00
7FC333FF00
8FFFEEEE20
5FC0000100
0AFC77A300
007CCA3000
ENDCHAR
STARTCHAR edieresis
ENCODING 235
SWIDTH 593 0
DWIDTH 8 0
BBX 9 11 0 -1
BITMAP
0002011000
005F3CA000
0016043000
0015750000
04DFFFC100
2EF307FA00
7FC333FF00
8FFFEEEE20
5FC0000100
0AFC77A300
007CCA3000
ENDCHAR
STARTCHAR igrave
ENCODING 236
SWIDTH 393 0
DWIDTH 6 0
BBX 7 12 -1 0
BITMAP
00054000
005FA000
000DE100
00059100
14444200
03AFF800
000CF700
000BF600
000BF500
000AF300
001CF400
04DFFF70
ENDCHAR
STARTCHAR iacute
ENCODING 237
SWIDTH 393 0
DWIDTH 6 0
BBX 7 12 -1 0
BITMAP
00006200
0001FD00
0006F500
00038000
14444200
03AFF800
000CF700
000BF600
000BF500
000AF300
001CF400
04DFFF70
ENDCHAR
STARTCHAR icircumflex
ENCODING 238
SWIDTH 393 0
DWIDTH 6 0
BBX 7 12 -1 0
BITMAP
0005A000
003EF800
01DB7E50
00400220
14444200
03AFF800
000CF700
000BF600
000BF500
000AF300
001CF400
04DFFF70
ENDCHAR
STARTCHAR idieresis
ENCODING 239
SWIDTH 393 0
DWIDTH 6 0
BBX 7 11 -1 0
BITMAP
00020200
009E1F60
00250610
14444200
03AFF800
000CF700
000BF600
000BF500
000AF300
001CF400
04DFFF70
ENDCHAR
STARTCHAR eth
ENCODING 240
SWIDTH 672 0
DWIDTH 9 0
BBX 11 14 -1 -2
BITMAP
002100000000
00059203C700
00003DBFC200
00005EFD0000
0008FD9F9000
0001910DF400
00015669FC00
01AFEBCFFF20
0BFB1006FF50
1FF30000DF60
1FF30000EF30
09FB1007FC00
008EECEF9100
000135310000
ENDCHAR
STARTCHAR ntilde
ENCODING 241
SWIDTH 643 0
DWIDTH 9 0
BBX 12 12 -2 0
BITMAP
000001200100
00000FFDD300
00000A7DD200
000000000000
001368145100
16CFFFEFFE20
0005FE52BF80
0003FC004FA0
0001FA004F80
0005FC204F60
00465556CFB3
000000122221
ENDCHAR
STARTCHAR ograve
ENCODING 242
SWIDTH 705 0
DWIDTH 10 0
BBX 10 12 0 -1
BITMAP
0000260000
0001EF1000
00007F6000
00001A4000
00389A7200
1CFD87DFA0
9FC0001DF7
CF700009FA
BF90000BF9
3EF6117FE2
029EFFD820
0000110000
ENDCHAR
STARTCHAR oacute
ENCODING 243
SWIDTH 705 0
DWIDTH 10 0
BBX 10 12 0 -1
BITMAP
0000161000
00006F8000
0000BE1000
0000550000
00389A7200
1CFD87DFA0
9FC0001DF7
CF700009FA
BF90000BF9
3EF6117FE2
029EFFD820
0000110000
ENDCHAR
STARTCHAR ocircumflex
ENCODING 244
SWIDTH 705 0
DWIDTH 10 0
BBX 10 12 0 -1
BITMAP
00006A0000
0003FF7000
001DA7E400
0004002200
00389A7200
1CFD87DFA0
9FC0001DF7
CF700009FA
BF90000BF9
3EF6117FE2
029EFFD820
0000110000
ENDCHAR
STARTCHAR otilde
ENCODING 245
SWIDTH 705 0
DWIDTH 10 0
BBX 10 12 0 -1
BITMAP
0001300100
000DFDC500
000A7CD300
0000000000
00389A7200
1CFD87DFA0
9FC0001DF7
CF700009FA
BF90000BF9
3EF6117FE2
029EFFD820
0000110000
ENDCHAR
STARTCHAR odieresis
ENCODING 246
SWIDTH 705 0
DWIDTH 10 0
BBX 10 11 0 -1
BITMAP
0001102000
000BB4F300
0004416000
00389A7200
1CFD87DFA0
9FC0001DF7
CF700009FA
BF90000BF9
3EF6117FE2
029EFFD820
0000110000
ENDCHAR
STARTCHAR divide
ENCODING 247
SWIDTH 504 0
DWIDTH 7 0
BBX 7 9 0 -1
BITMAP
005EB000
009FF100
00153000
DFEDCCA0
DFFEEEC0
10031000
00AFD000
009FC000
00010000
ENDCHAR
STARTCHAR oslash
ENCODING 248
SWIDTH 705 0
DWIDTH 10 0
BBX 10 11 0 -2
BITMAP
0000001300
0000007F60
00389AEF20
1CFD8DFFA0
9FC03FDDF7
CF70CF48FA
BF96F90BF9
3EFEE37FE2
03DFFFD820
02FB110000
0182000000
ENDCHAR
STARTCHAR ugrave
ENCODING 249
SWIDTH 614 0
DWIDTH 9 0
BBX 11 13 -1 -1
BITMAP
000036000000
0002FE000000
00009F400000
00001B300000
000000000000
6DDD26AAA400
03FF003EF400
02FE000DF200
02FD000EE000
01FD000EC000
00CF528F9000
003DFFCFD720
000012086300
ENDCHAR
STARTCHAR uacute
ENCODING 250
SWIDTH 614 0
DWIDTH 9 0
BBX 11 13 -1 -1
BITMAP
000005300000
00000EE10000
00004F700000
000028000000
000000000000
6DDD26AAA400
03FF003EF400
02FE000DF200
02FD000EE000
01FD000EC000
00CF528F9000
003DFFCFD720
000012086300
ENDCHAR
STARTCHAR ucircumflex
ENCODING 251
SWIDTH 614 0
DWIDTH 9 0
BBX 11 12 -1 -1
BITMAP
00002C100000
0001CFB00000
000AD6D90000
000300130000
6DDD26AAA400
03FF003EF400
02FE000DF200
02FD000EE000
01FD000EC000
00CF528F9000
003DFFCFD720
000012086300
ENDCHAR
STARTCHAR udieresis
ENCODING 252
SWIDTH 614 0
DWIDTH 9 0
BBX 11 12 -1 -1
BITMAP
000110200000
000BC4F40000
000440610000
000000000000
6DDD26AAA400
03FF003EF400
02FE000DF200
02FD000EE000
01FD000EC000
00CF528F9000
003DFFCFD720
000012086300
ENDCHAR
STARTCHAR yacute
ENCODING 253
SWIDTH 655 0
DWIDTH 9 0
BBX 10 19 -1 -7
BITMAP
0000053000
00000EE100
00004F7000
0000280000
3300000000
0BD836CA95
01FFA03DFB
03FF500AFA
06FF100AF9
07FF200BF9
02EFEAAEF8
0028AA8DF7
0000000CF7
0000000CF6
0194000EF5
06FA003FF1
03F801BF90
006EFFF910
0001341000
ENDCHAR
STARTCHAR thorn
ENCODING 254
SWIDTH 734 0
DWIDTH 10 0
BBX 12 16 -1 -6
BITMAP
6AAAA3000000
03AFF5000000
000FF5000000
000FF5000000
000EF5000000
000EF8786100
000EFD9AEF60
000DF5002EF3
000DF5000BF6
000CF5001DF4
000CFB66CFA0
000BFBCDB600
000BF5000000
000BF6000000
003DFB300000
28BAA9950000
ENDCHAR
STARTCHAR ydieresis
ENCODING 255
SWIDTH 655 0
DWIDTH 9 0
BBX 10 18 -1 -7
BITMAP
0001102000
000BC4F400
0004406100
3300000000
0BD836CA95
01FFA03DFB
03FF500AFA
06FF100AF9
07FF200BF9
02EFEAAEF8
0028AA8DF7
0000000CF7
0000000CF6
0194000EF5
06FA003FF1
03F801BF90
006EFFF910
0001341000
ENDCHAR
STARTCHAR dotlessi
ENCODING 305
SWIDTH 393 0
DWIDTH 6 0
BBX 7 8 -1 0
BITMAP
14444200
03AFF800
000CF700
000BF600
000BF500
000AF300
001CF400
04DFFF70
ENDCHAR
STARTCHAR Lslash
ENCODING 321
SWIDTH 713 0
DWIDTH 10 0
BBX 11 11 -1 0
BITMAP
4AFFFFE93000
001EFD100000
000CFC000000
000BFDB70000
000BFFFC0000
05CFFE500050
09FEFB0000B0
0118FB0004D0
0007FA000AD0
003BFEAA9ED0
28CCBAA98860
ENDCHAR
STARTCHAR lslash
ENCODING 322
SWIDTH 365 0
DWIDTH 5 0
BBX 8 13 -2 -1
BITMAP
17DFFF00
0009FE00
0007FE00
0007FD01
0006FECA
003AFFD6
07FFFC00
03D9FB00
0003FA00
0003FA00
0002F900
0003FB10
008FEEB3
ENDCHAR
STARTCHAR OE
ENCODING 338
SWIDTH 1195 0
DWIDTH 17 0
BBX 17 12 0 -1
BITMAP
000000000000000100
0000046789ACDEFF20
0000015AEFE7547F20
017BDC92BFD0021E10
2DF946EEDFD0350810
9FA0006FFFD0B50200
CF50002FFFFEF50200
BF60003FFFD8F50700
5FD100AFFFB0840B00
06EEBEF89FB0024C00
00146559EFEDDDEC00
000003555444444300
ENDCHAR
STARTCHAR oe
ENCODING 339
SWIDTH 1087 0
DWIDTH 15 0
BBX 16 8 0 -1
BITMAP
0014541000120000
08FEBEE76DFFE600
8FB101CFFD44CF60
CF30006FF6104FE0
CF40007FFFFFFFF1
5FC203DFF7211110
04CFEFB7FF967A20
0000200039CC9200
ENDCHAR
STARTCHAR Scaron
ENCODING 352
SWIDTH 661 0
DWIDTH 9 0
BBX 10 16 0 -2
BITMAP
007915C100
001DEF6000
0003F90000
0000310000
0001100040
07DFFEB6C0
8FB203BFB0
CFA1000790
AFFFB72030
1AFFFFFA10
0126AFFFC0
080001CFF1
1F8100AFD0
3BCECDFB20
4203552000
1000000000
ENDCHAR
STARTCHAR scaron
ENCODING 353
SWIDTH 533 0
DWIDTH 7 0
BBX 8 14 0 -1
BITMAP
03B32B40
00AFFB00
001CD100
00022000
00131010
1AFFF790
8F504DE0
AFB301B0
3EFFD730
22AFFFD1
68016EF6
8FB53CF4
96ADEC50
10000000
ENDCHAR
STARTCHAR Ydieresis
ENCODING 376
SWIDTH 848 0
DWIDTH 12 0
BBX 15 14 -2 -1
BITMAP
0000001102000000
000000AD2F500000
0000003406100000
0000001100000000
28DEFFA103221100
0017FF7003CFE920
00006FF500A91000
000008FE3AA00000
000000AFFB100000
0000000DF2000000
0000000DF3000000
0000000EF5000000
0000001EF8000000
000017DEEED82000
ENDCHAR
STARTCHAR Zcaron
ENCODING 381
SWIDTH 685 0
DWIDTH 10 0
BBX 10 13 0 0
BITMAP
001C41A500
0008FEC100
0000BE2000
0000130000
4566677887
9FEDDDFFF4
5E0009FF70
1B007FFA00
0505FFC103
003EFE2056
02DFF500D5
1CFFD879F4
6BBBBBBCC2
ENDCHAR
STARTCHAR zcaron
ENCODING 382
SWIDTH 549 0
DWIDTH 8 0
BBX 9 13 0 -1
BITMAP
01C41A6000
008FEC1000
000BE20000
0001300000
2233344510
AFFFEFFA00
7C00AFD100
4807FF3000
134FF61300
02EFA07500
1CFF42D600
7DEFFFF700
0000123200
ENDCHAR
STARTCHAR circumflex
ENCODING 710
SWIDTH 714 0
DWIDTH 10 0
BBX 5 4 3 9
BITMAP
01C200
0BFD10
8D6DA0
310030
ENDCHAR
STARTCHAR caron
ENCODING 711
SWIDTH 714 0
DWIDTH 10 0
BBX 5 4 3 9
BITMAP
9706B0
3EEF40
05F700
004000
ENDCHAR
STARTCHAR breve
ENCODING 728
SWIDTH 715 0
DWIDTH 10 0
BBX 5 3 3 10
BITMAP
8816A0
3FFF30
039400
ENDCHAR
STARTCHAR dotaccent
ENCODING 729
SWIDTH 708 0
DWIDTH 10 0
BBX 2 3 4 11
BITMAP
11
CB
43
ENDCHAR
STARTCHAR ring
ENCODING 730
SWIDTH 704 0
DWIDTH 10 0
BBX 3 3 4 10
BITMAP
8E70
E3E0
8E70
ENDCHAR
STARTCHAR ogonek
ENCODING 731
SWIDTH 988 0
DWIDTH 14 0
BBX 6 4 4 -2
BITMAP
2B0000
7F1000
7FCAB4
07A930
ENDCHAR
STARTCHAR tilde
ENCODING 732
SWIDTH 707 0
DWIDTH 10 0
BBX 5 3 3 10
BITMAP
031020
9FEB90
87BD70
ENDCHAR
STARTCHAR hungarumlaut
ENCODING 733
SWIDTH 671 0
DWIDTH 9 0
BBX 6 4 2 10
BITMAP
044260
0AFAF7
1FBCE1
173650
ENDCHAR
STARTCHAR endash
ENCODING 8211
SWIDTH 576 0
DWIDTH 8 0
BBX 8 3 0 4
BITMAP
02333441
3FFFFFF3
2ABBBCC3
ENDCHAR
STARTCHAR emdash
ENCODING 8212
SWIDTH 993 0
DWIDTH 14 0
BBX 14 3 0 4
BITMAP
00000111112220
3FFFFFFFFFFFF0
2CCDDDDDEEEEE1
ENDCHAR
STARTCHAR quoteleft
ENCODING 8216
SWIDTH 261 0
DWIDTH 4 0
BBX 4 4 0 6
BITMAP
07D4
1EF3
8FD0
4B80
ENDCHAR
STARTCHAR quoteright
ENCODING 8217
SWIDTH 301 0
DWIDTH 4 0
BBX 4 4 0 6
BITMAP
09B4
0EF7
4FD0
4C50
ENDCHAR
STARTCHAR quotesinglbase
ENCODING 8218
SWIDTH 332 0
DWIDTH 5 0
BBX 4 4 0 -1
BITMAP
09B4
0EF7
4FD0
4D50
ENDCHAR
STARTCHAR quotedblleft
ENCODING 8220
SWIDTH 477 0
DWIDTH 7 0
BBX 7 4 0 6
BITMAP
07D46D40
1EF4EF40
8FD8FD00
4B84B800
ENDCHAR
STARTCHAR quotedblright
ENCODING 8221
SWIDTH 477 0
DWIDTH 7 0
BBX 7 4 0 6
BITMAP
0D92D920
3FF6FF30
9F98FA00
7D27D200
ENDCHAR
STARTCHAR quotedblbase
ENCODING 8222
SWIDTH 477 0
DWIDTH 7 0
BBX 7 4 0 -1
BITMAP
0D92D920
3FF6FF30
8F98FA00
7D27D200
ENDCHAR
STARTCHAR dagger
ENCODING 8224
SWIDTH 487 0
DWIDTH 7 0
BBX 7 17 0 -5
BITMAP
006A8000
009FA000
008FA000
45AFA200
AFFFFF70
9CDFDA40
007F9000
007F8000
007F8000
006F8000
006F7000
006F7000
006F7000
005F6000
005F6000
005F6000
00021000
ENDCHAR
STARTCHAR daggerdbl
ENCODING 8225
SWIDTH 497 0
DWIDTH 7 0
BBX 7 17 0 -5
BITMAP
006A8000
009FA000
008FA000
45AFA200
AFFFFF70
9CDFDA40
007F9000
7BDFEE70
AFFFFF70
017F9420
006F7000
006F7000
006F7000
005F6000
005F6000
005F6000
00021000
ENDCHAR
STARTCHAR bullet
ENCODING 8226
SWIDTH 275 0
DWIDTH 4 0
BBX 4 5 0 3
BITMAP
0320
8FF6
EFFC
BFF9
1770
ENDCHAR
STARTCHAR ellipsis
ENCODING 8230
SWIDTH 787 0
DWIDTH 11 0
BBX 11 4 0 -2
BITMAP
020002000200
9FB0AFA0CF90
AFD0BFC0DFA0
031003001300
ENDCHAR
STARTCHAR perthousand
ENCODING 8240
SWIDTH 888 0
DWIDTH 12 0
BBX 13 12 0 -1
BITMAP
023002C7000000
9FEB07F8000000
E85F2DF2000000
BDCD5FA0000000
1772AF40000000
0002FC00000000
0007F600000000
000DE189439920
004F7AE9FFBCC0
00BF1CB3FF59E0
02F905EFB9FF60
01730001001100
ENDCHAR
STARTCHAR guilsinglleft
ENCODING 8249
SWIDTH 234 0
DWIDTH 3 0
BBX 4 8 0 -1
BITMAP
0080
06E0
3F70
CF10
7F50
0BB0
01D1
0010
ENDCHAR
STARTCHAR guilsinglright
ENCODING 8250
SWIDTH 223 0
DWIDTH 3 0
BBX 4 8 0 -1
BITMAP
8100
AA00
3F60
0CF1
1EB0
7E10
B400
1000
ENDCHAR
STARTCHAR fraction
ENCODING 8260
SWIDTH 600 0
DWIDTH 8 0
BBX 10 14 -1 -2
BITMAP
0000000540
0000001EF7
0000008FF4
000002FFA0
00000BFE20
00004FF700
0000DFC000
0007FF3000
001EF90000
009FE10000
03FF500000
0BFB000000
3FF2000000
0360000000
ENDCHAR
STARTCHAR Euro
ENCODING 8364
SWIDTH 590 0
DWIDTH 8 0
BBX 10 10 -1 0
BITMAP
0000012000
0003CFFD30
002ED21DE1
12AF500CF2
6FFFFE7120
25FF654000
5CEFEEE124
006FE515C1
0008FFFE40
0000254100
ENDCHAR
STARTCHAR trademark
ENCODING 8482
SWIDTH 624 0
DWIDTH 9 0
BBX 9 7 0 4
BITMAP
0300000000
0B00000000
BE90000000
6A27885810
7805A7A850
7855847760
2A52255220
ENDCHAR
STARTCHAR minus
ENCODING 8722
SWIDTH 549 0
DWIDTH 8 0
BBX 8 4 0 3
BITMAP
10000000
CFFEDDC6
DFFFFFF7
55544331
ENDCHAR
STARTCHAR fi
ENCODING 64257
SWIDTH 757 0
DWIDTH 11 0
BBX 12 20 -1 -6
BITMAP
000004651000
00009FCEE600
0006F702EF30
000CF201DF80
000FF102FF80
000FF1005810
000EF3111210
0CFFFFFFFFA0
033CF933CF80
0009F900AF70
0007FA009F60
0006FC008F50
0004FE00AF50
0002FF3CFFF8
0000FF200000
0000DF300000
8F40CF200000
9F41ED000000
2ECCF5000000
027830000000
ENDCHAR
STARTCHAR fl
ENCODING 64258
SWIDTH 776 0
DWIDTH 11 0
BBX 13 20 -1 -6
BITMAP
00000477200000
0000AFADF70000
0006F602EF3000
000CF100BF8000
000FF1009FA000
000FF1009FB000
000EF3008FB000
0CFFFFF97FA000
033CF9327FA000
0009F9006FA000
0007FA005F9000
0006FC005F8000
0004FE004F7000
0002FF006FA000
0000FF39FEEA20
0000DF40000000
8F40CF20000000
9F41ED00000000
2ECCF500000000
02783000000000
ENDCHAR
STARTCHAR .notdef
ENCODING -1
SWIDTH 320 0
DWIDTH 4 0
BBX 1 1 0 0
BITMAP
00
ENDCHAR
ENDFONT
